<?xml version="1.0" encoding="UTF-8"?>
<!DOCTYPE svg PUBLIC "-//W3C//DTD SVG 1.1//EN" "http://www.w3.org/Graphics/SVG/1.1/DTD/svg11.dtd">
<svg xmlns="http://www.w3.org/2000/svg" version="1.1" width="1024px" height="1024px" style="shape-rendering:geometricPrecision; text-rendering:geometricPrecision; image-rendering:optimizeQuality; fill-rule:evenodd; clip-rule:evenodd" xmlns:xlink="http://www.w3.org/1999/xlink">
<g><path style="opacity:0.998" fill="#fdfdfd" d="M 492.5,11.5 C 587.548,8.02277 673.548,33.8561 750.5,89C 780.368,114.534 807.868,142.367 833,172.5C 903.822,275.625 923.822,387.959 893,509.5C 882.629,545.904 867.629,580.237 848,612.5C 830.101,637.734 811.435,662.401 792,686.5C 713.333,784.5 634.667,882.5 556,980.5C 545.852,992.615 535.352,1004.45 524.5,1016C 519.282,1017.56 513.949,1017.9 508.5,1017C 504.033,1013.53 499.867,1009.7 496,1005.5C 393.171,881.477 292.505,755.81 194,628.5C 124.628,524.596 106.628,412.262 140,291.5C 155.063,241.696 178.73,196.696 211,156.5C 231.531,134.302 253.031,113.136 275.5,93C 339.953,45.1173 412.286,17.9507 492.5,11.5 Z M 486.5,98.5 C 599.286,93.1584 690.453,134.492 760,222.5C 816.551,300.58 834.217,386.913 813,481.5C 804.369,514.086 791.369,544.753 774,573.5C 692.588,678.961 609.255,782.961 524,885.5C 520.806,889.709 516.806,892.709 512,894.5C 510.373,894.375 508.873,893.875 507.5,893C 503.333,888.833 499.167,884.667 495,880.5C 413.813,781.987 334.147,682.321 256,581.5C 230.145,542.961 213.478,500.627 206,454.5C 192.364,336.024 231.197,238.857 322.5,163C 371.088,126.212 425.754,104.712 486.5,98.5 Z"/></g>
</svg>
